<svg xmlns="http://www.w3.org/2000/svg" width="129" height="50" viewBox="0 0 129 50">
  <g id="logo" transform="translate(-16535 -109)">
    <text id="STAUGÅRD_STUDIO" data-name="STAUGÅRD
STUDIO" transform="translate(16535 113)" fill="#242325" font-size="22" font-family="Salome-Deco, Salome Deco"><tspan x="0.051" y="17">STAUGÅRD</tspan><tspan x="18.729" y="40">STUDIO</tspan></text>
    <path id="Path_615" data-name="Path 615" d="M-7.56-76.835a2.086,2.086,0,0,0,2.173-2.173c0-2.3-1.862-3.414-2.048-5.276,1.676.993,2.111,4.718,4.718,4.718a2.218,2.218,0,0,0,2.111-2.3c0-1.614-1.179-2.359-3.166-2.359a9.443,9.443,0,0,1-3.662-.248,6.8,6.8,0,0,1,3.1-.248c1.924,0,3.725-.683,3.725-2.483a2.147,2.147,0,0,0-2.111-2.173,2.785,2.785,0,0,0-1.179.31c-1.986,1.117-2.048,3.352-3.538,4.407.186-1.862,2.048-2.98,2.048-5.276A2.086,2.086,0,0,0-7.56-92.106a2.086,2.086,0,0,0-2.173,2.173c0,2.3,1.862,3.414,2.048,5.276-1.49-1.055-1.552-3.29-3.538-4.407a2.785,2.785,0,0,0-1.179-.31A2.147,2.147,0,0,0-14.512-87.2c0,1.8,1.8,2.483,3.725,2.483a6.8,6.8,0,0,1,3.1.248,9.443,9.443,0,0,1-3.662.248c-1.986,0-3.166.745-3.166,2.359a2.218,2.218,0,0,0,2.111,2.3c2.607,0,3.042-3.725,4.718-4.718-.186,1.862-2.048,2.98-2.048,5.276A2.086,2.086,0,0,0-7.56-76.835Z" transform="translate(16664.607 228.106)" fill="#ef6f6c"/>
  </g>
</svg>
