<svg xmlns="http://www.w3.org/2000/svg" width="128.223" height="44.12" viewBox="0 0 128.223 44.12">
  <g id="logo" transform="translate(-16535.777 -109.298)">
    <path id="Path_616" data-name="Path 616" d="M6.607,17.418c3.256,0,6.27-1.914,6.27-5.214,0-5.39-8.1-5.258-8.1-8.91a1.888,1.888,0,0,1,2-1.98c1.452,0,1.936,1.012,1.936,2.156A2.7,2.7,0,0,1,7.8,5.428a2.866,2.866,0,0,0,1.98.836,1.988,1.988,0,0,0,2.2-2c0-1.232-1.1-3.08-5.1-3.08C2.955,1.182.777,3.052.777,5.934c0,5.148,8.228,5.588,8.228,9.064,0,1.188-.814,2.288-2.64,2.288-2.9,0-4.84-2.574-5.456-6.05H.8l.22,5.522C4.077,16.758,4.275,17.418,6.607,17.418ZM14.373,1.6l-.4,4.84.11.022c.506-2.882,2.42-4.686,5.148-4.686V14.14c0,1.716-.572,2.75-1.76,2.75V17s2.046-.066,4.334-.066S26.143,17,26.143,17v-.11c-1.166,0-1.76-.4-1.76-1.958V1.776c3.168,0,4.774,1.936,4.774,4.664l.088.022.4-4.862s-4.994.066-8.118.066C17.409,1.666,14.373,1.6,14.373,1.6ZM36.879,14.778a4.457,4.457,0,0,1,.132.924c0,.66-.264,1.188-1.122,1.188V17s1.166-.066,4.114-.066c3.036,0,4.246.066,4.246.066v-.11c-.726,0-1.364-.418-1.738-1.518L37.737,1.138,33.953,2.282l-4.18,11.176c-.418,1.144-1.232,3.432-2.486,3.432V17s.9-.066,2.024-.066c1.474,0,2.662.066,2.662.066v-.11c-1.628,0-2.134-.814-2.134-1.936a5.98,5.98,0,0,1,.264-1.672c.418-1.474,1.342-3.344,2.552-3.344.792,0,1.122.594,1.122,1.43A3.023,3.023,0,0,1,32.721,13.5a2.441,2.441,0,0,0,2.134,1.034A2.36,2.36,0,0,0,37.3,12.27a3.077,3.077,0,0,0-3.278-2.86A3.556,3.556,0,0,0,30.5,11.9l3.19-8.47,1.738,5.94a3.054,3.054,0,0,1,1.87,2.9A2.8,2.8,0,0,1,36.7,14.1Zm12.606-2.662V4.46c0-1.716.528-2.75,1.65-2.75V1.6s-1.936.066-4.224.066S42.687,1.6,42.687,1.6v.11c1.122,0,1.65.4,1.65,1.958v8.338c0,3.08,1.408,4.73,4.048,5.1a2.714,2.714,0,0,1-1.54-2.53A2.362,2.362,0,0,1,49.485,12.116Zm2.926,4.994a1.875,1.875,0,0,1-2.09-1.848,2.588,2.588,0,0,1,.924-2.024,2.484,2.484,0,0,0-1.936-.88,2.305,2.305,0,0,0-2.464,2.222c0,1.848,1.936,2.838,4.378,2.838,3.74,0,5.654-1.056,5.654-5.412V4.9c0-2.332.924-3.19,1.914-3.19V1.6s-1.5.066-1.98.066c-.77,0-3.058-.066-3.058-.066v.11c1.87,0,2.97.858,2.97,3.19v7.15C56.723,14.338,56.195,17.11,52.411,17.11ZM68.119,1.182a8.48,8.48,0,0,0-8.734,8.47c0,4.554,2.97,7.766,8.118,7.766,3.894,0,4.026-.9,7.678-.9v-4.07c0-1.716.528-2.75,1.65-2.75v-.11h-8.36V9.7c1.122,0,1.65.4,1.65,1.958v3.762c0,1.3-.462,1.848-1.584,1.848-1.936,0-3.278-2.134-3.278-8.206,0-6.688,1.54-7.744,3.124-7.744a1.977,1.977,0,0,1,2.09,2.156,3.761,3.761,0,0,1-.946,2.42,2.984,2.984,0,0,0,2.332,1.166,2.285,2.285,0,0,0,2.486-2.4C74.345,3.184,72.519,1.182,68.119,1.182Zm18.062,13.6a4.457,4.457,0,0,1,.132.924c0,.66-.264,1.188-1.122,1.188V17s1.166-.066,4.114-.066c3.036,0,4.246.066,4.246.066v-.11c-.726,0-1.364-.418-1.738-1.518L87.039,1.138,83.255,2.282l-4.18,11.176c-.418,1.144-1.232,3.432-2.486,3.432V17s.9-.066,2.024-.066c1.474,0,2.662.066,2.662.066v-.11c-1.628,0-2.134-.814-2.134-1.936a5.98,5.98,0,0,1,.264-1.672c.418-1.474,1.342-3.344,2.552-3.344.792,0,1.122.594,1.122,1.43A3.023,3.023,0,0,1,82.023,13.5a2.441,2.441,0,0,0,2.134,1.034A2.36,2.36,0,0,0,86.6,12.27a3.077,3.077,0,0,0-3.278-2.86A3.556,3.556,0,0,0,79.8,11.9l3.19-8.47,1.738,5.94a3.054,3.054,0,0,1,1.87,2.9A2.8,2.8,0,0,1,86,14.1ZM85.125.412c-.616,0-1.034-.814-1.034-2.09,0-1.056.22-1.936.858-1.936.616,0,1.034.814,1.034,2.09C85.983-.468,85.763.412,85.125.412ZM85.191-3.7a2.236,2.236,0,0,0-2.53,2.178A2.04,2.04,0,0,0,84.883.5a2.236,2.236,0,0,0,2.53-2.178A2.04,2.04,0,0,0,85.191-3.7ZM101.823,9.014c5.412,0,7.04-1.694,7.04-3.762,0-2.9-2.86-3.652-6.094-3.652-1.54,0-2.838.066-4.356.066-2.288,0-4.224-.066-4.224-.066v.11c1.122,0,1.65.4,1.65,1.958V14.14c0,1.716-.528,2.75-1.65,2.75V17s1.936-.066,4.224-.066,4.224.066,4.224.066v-.11c-1.122,0-1.65-.4-1.65-1.958v-.616A2.879,2.879,0,0,1,99.6,14.6a2.319,2.319,0,0,1-2.266-2.486c0-1.166.748-2.794,3.652-3.036V1.82a1.6,1.6,0,0,1,.55-.088c1.408,0,2.046,1.65,2.046,3.762C103.583,7.408,103.209,9.014,101.823,9.014Zm.682.242c-2.442,0-5.17.506-5.17,2.86A2.167,2.167,0,0,0,99.6,14.338a2.8,2.8,0,0,0,2.222-.99,3.13,3.13,0,0,1-1.1-2.442c0-.9.352-1.5.924-1.5.726,0,1.056.77,1.188,1.738l.4,2.684c.4,2.64,1.848,3.586,4.444,3.586a8.633,8.633,0,0,0,3.5-.66l-.044-.066a1.151,1.151,0,0,1-.4.066c-.682,0-1.1-.594-1.276-1.3l-.682-2.618C108.093,10.2,105.343,9.256,102.505,9.256Zm13.4,7.7a2.41,2.41,0,0,1-1.364-2.376,2.375,2.375,0,0,1,2.354-2.486,2.984,2.984,0,0,1,1.3.264V1.82a2.626,2.626,0,0,1,.638-.088c2.728,0,4.048,2.794,4.048,7.81,0,5.346-1.694,7.744-3.41,7.744-.968,0-1.5-.7-1.5-1.8a2.881,2.881,0,0,1,1.1-2.134,2.944,2.944,0,0,0-2.222-.99,2.205,2.205,0,0,0-2.31,2.222c0,2.706,3.652,2.838,5.1,2.838,5.324,0,8.778-3.366,8.778-8.492,0-4.576-3.63-7.326-8.756-7.326-1.364,0-2.926.066-4.048.066-2.288,0-4.224-.066-4.224-.066v.11c1.122,0,1.65.4,1.65,1.958V14.14c0,1.716-.528,2.75-1.65,2.75V17S113.615,16.956,115.9,16.956ZM25.285,40.418c3.256,0,6.27-1.914,6.27-5.214,0-5.39-8.1-5.258-8.1-8.91a1.888,1.888,0,0,1,2-1.98c1.452,0,1.936,1.012,1.936,2.156a2.7,2.7,0,0,1-.924,1.958,2.866,2.866,0,0,0,1.98.836,1.988,1.988,0,0,0,2.2-2c0-1.232-1.1-3.08-5.1-3.08-3.916,0-6.094,1.87-6.094,4.752,0,5.148,8.228,5.588,8.228,9.064,0,1.188-.814,2.288-2.64,2.288-2.9,0-4.84-2.574-5.456-6.05h-.11l.22,5.522C22.755,39.758,22.953,40.418,25.285,40.418ZM33.051,24.6l-.4,4.84.11.022c.506-2.882,2.42-4.686,5.148-4.686V37.14c0,1.716-.572,2.75-1.76,2.75V40s2.046-.066,4.334-.066S44.821,40,44.821,40v-.11c-1.166,0-1.76-.4-1.76-1.958V24.776c3.168,0,4.774,1.936,4.774,4.664l.088.022.4-4.862s-4.994.066-8.118.066C36.087,24.666,33.051,24.6,33.051,24.6ZM56.085,35.116V27.46c0-1.716.528-2.75,1.65-2.75V24.6s-1.936.066-4.224.066-4.224-.066-4.224-.066v.11c1.122,0,1.65.4,1.65,1.958v8.338c0,3.08,1.408,4.73,4.048,5.1a2.714,2.714,0,0,1-1.54-2.53A2.362,2.362,0,0,1,56.085,35.116Zm2.926,4.994a1.875,1.875,0,0,1-2.09-1.848,2.588,2.588,0,0,1,.924-2.024,2.484,2.484,0,0,0-1.936-.88,2.305,2.305,0,0,0-2.464,2.222c0,1.848,1.936,2.838,4.378,2.838,3.74,0,5.654-1.056,5.654-5.412V27.9c0-2.332.924-3.19,1.914-3.19V24.6s-1.5.066-1.98.066c-.77,0-3.058-.066-3.058-.066v.11c1.87,0,2.97.858,2.97,3.19v7.15C63.323,37.338,62.795,40.11,59.011,40.11Zm11.4-.154a2.41,2.41,0,0,1-1.364-2.376A2.375,2.375,0,0,1,71.4,35.094a2.984,2.984,0,0,1,1.3.264V24.82a2.626,2.626,0,0,1,.638-.088c2.728,0,4.048,2.794,4.048,7.81,0,5.346-1.694,7.744-3.41,7.744-.968,0-1.5-.7-1.5-1.8a2.881,2.881,0,0,1,1.1-2.134,2.944,2.944,0,0,0-2.222-.99,2.205,2.205,0,0,0-2.31,2.222c0,2.706,3.652,2.838,5.1,2.838,5.324,0,8.778-3.366,8.778-8.492,0-4.576-3.63-7.326-8.756-7.326-1.364,0-2.926.066-4.048.066-2.288,0-4.224-.066-4.224-.066v.11c1.122,0,1.65.4,1.65,1.958V37.14c0,1.716-.528,2.75-1.65,2.75V40S68.119,39.956,70.407,39.956ZM92.341,24.6s-1.936.066-4.224.066-4.224-.066-4.224-.066v.11c1.122,0,1.65.4,1.65,1.958V37.14c0,1.716-.528,2.75-1.65,2.75V40s1.936-.066,4.224-.066S92.341,40,92.341,40v-.11c-1.122,0-1.65-.4-1.65-1.958V27.46c0-1.716.528-2.75,1.65-2.75Zm6.886,5.258a2.142,2.142,0,0,1-.352.022,2.294,2.294,0,0,1-2.442-2.244,3.806,3.806,0,0,1,.286-1.628,7.486,7.486,0,0,0-3.41,6.644c0,4.642,2.926,7.766,8.1,7.766,5.192,0,8.338-3.784,8.338-8.492,0-4.642-3.058-7.744-8.228-7.744-1.936,0-5.082.9-5.082,3.454,0,1.056.814,1.958,2.354,1.958a2.683,2.683,0,0,0,2.222-1.1,3.1,3.1,0,0,1-1.166-2.31c0-.924.418-1.87,1.408-1.87,1.562,0,2.662,3.212,2.662,8.228,0,5.7-.77,7.744-2.068,7.744-1.452,0-2.684-3.212-2.684-8.228C99.161,31.134,99.183,30.606,99.227,29.858Z" transform="translate(16535 113)" fill="#242325"/>
    <path id="Path_615" data-name="Path 615" d="M-7.56-76.835a2.086,2.086,0,0,0,2.173-2.173c0-2.3-1.862-3.414-2.048-5.276,1.676.993,2.111,4.718,4.718,4.718a2.218,2.218,0,0,0,2.111-2.3c0-1.614-1.179-2.359-3.166-2.359a9.443,9.443,0,0,1-3.662-.248,6.8,6.8,0,0,1,3.1-.248c1.924,0,3.725-.683,3.725-2.483a2.147,2.147,0,0,0-2.111-2.173,2.785,2.785,0,0,0-1.179.31c-1.986,1.117-2.048,3.352-3.538,4.407.186-1.862,2.048-2.98,2.048-5.276A2.086,2.086,0,0,0-7.56-92.106a2.086,2.086,0,0,0-2.173,2.173c0,2.3,1.862,3.414,2.048,5.276-1.49-1.055-1.552-3.29-3.538-4.407a2.785,2.785,0,0,0-1.179-.31A2.147,2.147,0,0,0-14.512-87.2c0,1.8,1.8,2.483,3.725,2.483a6.8,6.8,0,0,1,3.1.248,9.443,9.443,0,0,1-3.662.248c-1.986,0-3.166.745-3.166,2.359a2.218,2.218,0,0,0,2.111,2.3c2.607,0,3.042-3.725,4.718-4.718-.186,1.862-2.048,2.98-2.048,5.276A2.086,2.086,0,0,0-7.56-76.835Z" transform="translate(16664.607 228.106)" fill="#ef6f6c"/>
  </g>
</svg>
