<svg xmlns="http://www.w3.org/2000/svg" width="75" height="74" viewBox="0 0 75 74">
  <path id="star-purple" d="M-2326.462,1671v-29.746L-2338,1668.735l-2.7-1.1,11.537-27.482-21.318,21.034-2.068-2.041,21.319-21.034-27.854,11.384-1.119-2.666,27.853-11.383H-2362.5v-2.886h30.148l-27.853-11.383,1.119-2.666,28.21,11.529-21.466-21.18,2.068-2.041,21.319,21.035-11.537-27.482,2.7-1.1,11.328,26.984V1597h2.925v29.747l11.537-27.482,2.7,1.1-11.537,27.481,21.317-21.033,2.068,2.041-21.317,21.033,27.852-11.383,1.119,2.666-27.854,11.384h30.149v2.886h-30.148l27.854,11.383-1.119,2.666-27.5-11.238,21.17,20.888-2.068,2.041-21.317-21.033,11.537,27.481-2.7,1.1-11.746-27.98V1671Z" transform="translate(2362.5 -1597)" fill="#f3aef2"/>
</svg>
